<!DOCTYPE svg PUBLIC "-//W3C//DTD SVG 1.1//EN" "http://www.w3.org/Graphics/SVG/1.1/DTD/svg11.dtd">
<!-- Uploaded to: SVG Repo, www.svgrepo.com, Transformed by: SVG Repo Mixer Tools -->
<svg fill="#000000" width="800px" height="800px" viewBox="0 0 24 24" id="curve-arrow-down-2" data-name="Flat Color" xmlns="http://www.w3.org/2000/svg" class="icon flat-color" transform="matrix(-1, 0, 0, 1, 0, 0)">
<g id="SVGRepo_bgCarrier" stroke-width="0"/>
<g id="SVGRepo_tracerCarrier" stroke-linecap="round" stroke-linejoin="round"/>
<g id="SVGRepo_iconCarrier">
<path id="primary" d="M21,2.7A1,1,0,0,0,20,2C14.43,2,7.87,4.64,7.09,12H4a1,1,0,0,0-.77,1.63l6.22,7.63a2,2,0,0,0,3.1,0l6.22-7.63A1,1,0,0,0,18,12H15.14c.8-4.94,5.38-8.14,5.43-8.18A1,1,0,0,0,21,2.7Z" style="fill: #000000;"/>
</g>
</svg>